# xmcd
#
# Track frame offsets:
#	150
#	14845
#	26928
#	41987
#	54989
#	66097
#	77440
#	94246
#	107804
#	124815
#	138836
#	150032
#	170993
#
# Disc length: 2343 seconds
# Revision: 0
# Processed by: cddbd v1.5.2PL0 Copyright (c) Steve Scherf et al.
# Submitted via: dBpowerAMP V12.0
#
DISCID=ae09250d
DTITLE=The Brombies - Running With The Herd
DYEAR=2017
DGENRE=Country
TTITLE0=In My Carolina Home
TTITLE1=Finally
TTITLE2=I'm Going Crazy
TTITLE3=Before My Time
TTITLE4=n I Can Call On Mother
TTITLE5=The Horse You Rode In On
TTITLE6=In Small Things Remembered
TTITLE7=The Gangplank of Love
TTITLE8=Coming Back Home
TTITLE9=How Hard Can It Be
TTITLE10=Birdy's Breakdown
TTITLE11=Tale Of Two Brothers
TTITLE12=J.E. and Ernie
EXTD=
EXTT0=
EXTT1=
EXTT2=
EXTT3=
EXTT4=
EXTT5=
EXTT6=
EXTT7=
EXTT8=
EXTT9=
EXTT10=
EXTT11=
EXTT12=
PLAYORDER=
